<svg xmlns="http://www.w3.org/2000/svg" viewBox="0 0 300 300">
  <g fill="none">
    <circle cx="149.813" cy="149.813" r="149.813" fill="#6664D1"/>
    <path fill="#FFF" d="M126.375 131.25C116.4375 159.75 98.25 212.8125 98.25 212.8125L146.25 156.5625C135 143.4375 129 136.3125 127.5 135.375 126.985635 134.041856 126.608682 132.659694 126.375 131.25zM166.875 112.5C164.323391 108.174156 160.242109 104.962656 155.4375 103.5L155.4375 88.5C155.340312 85.5381419 152.961858 83.1596877 150 83.0625 146.789845 83.0625 144.1875 85.6648449 144.1875 88.875L144.1875 104.0625 140.25 105.75C135.615662 108.184381 132.21002 112.445287 130.856772 117.502164 129.503523 122.559042 130.325899 127.951389 133.125 132.375 134.4375 134.625 201.5625 211.875 201.5625 211.875 201.5625 211.875 168.75 114.9375 166.875 112.5zM150 133.125C144.925884 133.125 140.8125 129.011616 140.8125 123.9375 140.8125 118.863384 144.925884 114.75 150 114.75 155.074116 114.75 159.1875 118.863384 159.1875 123.9375 159.1875 129.011616 155.074116 133.125 150 133.125zM263.8125 135.75C257.78795 135.674211 252.317773 139.255081 249.97713 144.806868 247.636487 150.358654 248.891816 156.77501 253.152153 161.035347 257.41249 165.295684 263.828846 166.551013 269.380632 164.21037 274.932419 161.869727 278.513289 156.39955 278.4375 150.375 278.4375 142.297836 271.889664 135.75 263.8125 135.75zM52.3125 150C52.3125 141.819282 45.6807179 135.1875 37.5 135.1875 30.0108156 136.034123 24.3513974 142.369364 24.3513974 149.90625 24.3513974 157.443136 30.0108156 163.778377 37.5 164.625 45.6080505 164.62565 52.2098665 158.107401 52.3125 150z"/>
    <path fill="#FFF" d="M40.5 112.5C42.507595 112.478562 44.3271675 111.314036 45.1875 109.5 62.2515963 66.4340022 103.678978 37.975837 150 37.5L150 52.3125 166.6875 37.5C206.625848 42.9421699 240.600721 69.3352821 255.75 106.6875 256.439165 109.072785 258.526288 110.787207 261 111 263.826019 110.899007 266.064304 108.577822 266.0625 105.75 266.156486 104.814856 266.156486 103.872644 266.0625 102.9375 249.285756 62.3668319 212.241375 33.7448728 168.75 27.75L150 12.9375 150 26.4375C99.7301427 26.8018918 54.6438865 57.4516621 35.8125 104.0625 35.6437233 104.803005 35.6437233 105.571995 35.8125 106.3125 35.5426389 107.765052 35.8972987 109.264081 36.7894424 110.44171 37.6815861 111.61934 39.0286312 112.366562 40.5 112.5zM261 189C258.992405 189.021438 257.172832 190.185964 256.3125 192 238.9427 235.464334 196.806466 263.926729 150 263.8125L150 247.125 131.25 262.3125C92.3619964 255.893447 59.5782932 229.780021 44.625 193.3125 43.9900865 190.998439 41.9571069 189.341937 39.5625 189.1875 38.1876582 189.136545 36.851289 189.647333 35.8609375 190.602315 34.870586 191.557297 34.3115561 192.874215 34.3125 194.25 34.1967947 195.18393 34.1967947 196.12857 34.3125 197.0625 51.2353689 238.508065 89.2520529 267.55855 133.6875 273L148.875 285.75 148.875 274.125 150 274.125C200.573844 273.982281 246.02011 243.215234 264.9375 196.3125 265.106277 195.571995 265.106277 194.803005 264.9375 194.0625 264.928045 191.676254 263.310496 189.596547 261 189z"/>
  </g>
</svg>
